<?xml version="1.0" encoding="utf-8"?>
<!-- Generator: Adobe Illustrator 25.2.3, SVG Export Plug-In . SVG Version: 6.00 Build 0)  -->
<svg version="1.1" id="Layer_1" xmlns="http://www.w3.org/2000/svg" xmlns:xlink="http://www.w3.org/1999/xlink" x="0px" y="0px"
	 width="20px" height="10px" viewBox="0 0 20 10" style="enable-background:new 0 0 20 10;" xml:space="preserve">
<style type="text/css">
	.st0{fill:#1A778B;}
</style>
<path class="st0" d="M15,0h-4v2h4c1.6,0,3,1.4,3,3s-1.4,3-3,3h-4v2h4c2.8,0,5-2.2,5-5S17.8,0,15,0z M9,8H5C3.3,8,2,6.6,2,5
	s1.3-3,3-3h4V0H5C2.2,0,0,2.2,0,5s2.2,5,5,5h4V8z M6,4h8v2H6V4z"/>
</svg>
