<?xml version="1.0" encoding="utf-8"?>
<!-- Generator: Adobe Illustrator 19.2.1, SVG Export Plug-In . SVG Version: 6.00 Build 0)  -->
<svg version="1.1" id="Layer_1" xmlns="http://www.w3.org/2000/svg" xmlns:xlink="http://www.w3.org/1999/xlink" x="0px" y="0px"
	 viewBox="0 0 501 501" style="enable-background:new 0 0 501 501;" xml:space="preserve">
<style type="text/css">
	.st0{fill:none;stroke-miterlimit:10;}
	.st1{fill:#0077B5;}
</style>
<circle class="st0" cx="250.5" cy="250.5" r="250"/>
<g>
	<path class="st1" d="M174.3,132.7c0.1,9.4-3.1,17.1-9.7,23.3c-6.6,6.3-15.2,9.4-25.9,9.4h-0.4c-10.4,0-18.8-3.1-25.2-9.4
		c-6.4-6.2-9.6-14-9.6-23.3c0-9.5,3.3-17.3,9.8-23.4c6.6-6.2,15.2-9.2,25.8-9.2c10.5,0,19.1,3.1,25.5,9.2
		C170.9,115.5,174.2,123.3,174.3,132.7z M170.3,191.3V381h-63.1V191.3H170.3z M397.5,272.3V381h-63V279.5c0-13.4-2.6-23.9-7.7-31.5
		c-5.2-7.6-13.3-11.4-24.2-11.4c-8.1,0-14.8,2.2-20.2,6.6c-5.4,4.4-9.5,9.8-12.2,16.3c-1.4,3.8-2.1,9-2.1,15.5V381h-63
		c0.2-50.9,0.4-92.1,0.4-123.9c0-31.6-0.1-50.6-0.2-56.6l-0.2-9.2h63.1v27.6h-0.4c2.6-4,5.2-7.7,7.8-10.8c2.6-3.1,6.3-6.4,10.8-9.9
		s10.1-6.4,16.7-8.3c6.5-2,13.9-3,21.9-3c21.8,0,39.3,7.2,52.6,21.7C390.9,223.1,397.5,244.3,397.5,272.3z"/>
</g>
</svg>
