<?xml version="1.0" encoding="utf-8"?>
<!-- Generator: Adobe Illustrator 25.4.1, SVG Export Plug-In . SVG Version: 6.00 Build 0)  -->
<svg version="1.1" id="Layer_1" xmlns="http://www.w3.org/2000/svg" xmlns:xlink="http://www.w3.org/1999/xlink" x="0px" y="0px"
	 viewBox="0 0 326.5 265.1" style="enable-background:new 0 0 326.5 265.1;" xml:space="preserve">
<style type="text/css">
	.st0{enable-background:new    ;}
	.st1{fill:#5FA9DD;}
</style>
<g class="st0">
	<path class="st1" d="M326.5,31.6c-9.3,13.6-20.5,25-33.5,34.6c0.1,1.9,0.3,4.8,0.3,8.6c0,17.9-2.7,35.8-7.9,53.7
		c-5.2,17.9-13.2,35.1-23.9,51.5c-10.7,16.4-23.5,31-38.2,43.6s-32.7,22.7-53.5,30.2s-43.2,11.3-67,11.3c-37.5,0-71.7-10-102.8-30
		c4.8,0.5,10.2,0.9,16.1,0.9c31.1,0,58.7-9.5,83.1-28.6c-14.5-0.3-27.4-4.7-38.9-13.3s-19.3-19.7-23.6-33c4.6,0.6,8.8,1,12.6,1
		c6,0,11.8-0.8,17.7-2.3c-15.5-3.2-28.3-10.9-38.4-23.1c-10.2-12.2-15.2-26.4-15.2-42.6v-0.9c9.4,5.2,19.4,8.1,30.2,8.5
		c-9.1-6.1-16.4-14-21.7-23.8c-5.3-9.8-8.1-20.5-8.1-31.9c0-12.2,3-23.4,9.1-33.8c16.6,20.6,37.1,37.1,61,49.4
		c24,12.3,49.6,19.2,77,20.6c-1.1-5.2-1.7-10.4-1.7-15.4c0-18.6,6.5-34.3,19.6-47.4C191.9,6.4,207.6,0,226.2,0
		c19.3,0,35.6,7,48.9,21.1c15-2.9,29.2-8.3,42.4-16.1c-5.1,15.9-14.9,28.2-29.4,36.8C300.8,40.5,313.6,37.1,326.5,31.6z"/>
</g>
</svg>
